<svg width="99" height="20" viewBox="0 0 99 20" fill="none" xmlns="http://www.w3.org/2000/svg">
<g clip-path="url(#clip0_42_352)">
<path d="M18.3234 9.99458C18.3234 14.5944 14.5944 18.3234 9.99458 18.3234M18.3234 9.99458C18.3234 5.3947 14.5944 1.66577 9.99458 1.66577M18.3234 9.99458H14.9919M9.99458 18.3234C5.3947 18.3234 1.66577 14.5944 1.66577 9.99458M9.99458 18.3234V14.9919M1.66577 9.99458C1.66577 5.3947 5.3947 1.66577 9.99458 1.66577M1.66577 9.99458H4.99729M9.99458 1.66577V4.99729" stroke="#F4F4F5" stroke-width="1.49837" stroke-linecap="round" stroke-linejoin="round"/>
</g>
<path d="M28.2802 17.2377L22.8447 2.49854H25.1025L29.5345 15.0479L34.0083 2.49854H36.2243L30.7888 17.2377H28.2802Z" fill="#F4F4F5"/>
<path d="M39.9056 17.4904C39.0415 17.4904 38.3238 17.343 37.7523 17.0482C37.1809 16.7534 36.7558 16.3604 36.4771 15.8691C36.1984 15.3637 36.059 14.8233 36.059 14.2478C36.059 13.5459 36.2402 12.9493 36.6025 12.458C36.9649 11.9527 37.4806 11.5666 38.1495 11.2999C38.8185 11.0332 39.6199 10.8999 40.5537 10.8999H43.2923C43.2923 10.2822 43.2017 9.76986 43.0205 9.36278C42.8393 8.9557 42.5676 8.6539 42.2052 8.45737C41.8568 8.24681 41.4108 8.14153 40.8673 8.14153C40.2401 8.14153 39.7035 8.29594 39.2575 8.60476C38.8115 8.89955 38.5328 9.34172 38.4213 9.93129H36.3308C36.4144 9.18731 36.6652 8.55563 37.0834 8.03625C37.5154 7.50284 38.0659 7.09575 38.7349 6.81501C39.4039 6.52022 40.1147 6.37283 40.8673 6.37283C41.8568 6.37283 42.686 6.5483 43.355 6.89923C44.024 7.25016 44.5257 7.74849 44.8602 8.39421C45.2086 9.02588 45.3829 9.7839 45.3829 10.6683V17.2377H43.5641L43.3968 15.448C43.2435 15.7287 43.0623 15.9954 42.8533 16.2481C42.6442 16.5008 42.3934 16.7183 42.1007 16.9008C41.8219 17.0833 41.4944 17.2237 41.1181 17.3219C40.7558 17.4342 40.3516 17.4904 39.9056 17.4904ZM40.3028 15.7848C40.7488 15.7848 41.153 15.6936 41.5153 15.5111C41.8777 15.3286 42.1843 15.083 42.4352 14.7742C42.7 14.4513 42.8951 14.0934 43.0205 13.7003C43.1599 13.2932 43.2366 12.8791 43.2505 12.458V12.3948H40.7627C40.1634 12.3948 39.6756 12.472 39.2993 12.6265C38.937 12.7668 38.6722 12.9633 38.5049 13.216C38.3377 13.4687 38.2541 13.7635 38.2541 14.1004C38.2541 14.4513 38.3307 14.7531 38.484 15.0058C38.6513 15.2444 38.8882 15.4339 39.1948 15.5743C39.5014 15.7147 39.8708 15.7848 40.3028 15.7848Z" fill="#F4F4F5"/>
<path d="M47.6331 17.2377V6.6255H49.5146L49.7028 8.62582C49.9397 8.14855 50.2463 7.74849 50.6226 7.42563C50.9989 7.08874 51.4379 6.82905 51.9397 6.64656C52.4553 6.46408 53.0407 6.37283 53.6957 6.37283V8.60476H52.9431C52.5111 8.60476 52.1 8.66091 51.7097 8.77321C51.3195 8.87147 50.9711 9.04694 50.6644 9.29961C50.3718 9.55228 50.1418 9.8962 49.9746 10.3314C49.8073 10.7665 49.7237 11.3069 49.7237 11.9527V17.2377H47.6331Z" fill="#F4F4F5"/>
<path d="M58.6887 17.4904C57.8246 17.4904 57.1069 17.343 56.5355 17.0482C55.9641 16.7534 55.539 16.3604 55.2602 15.8691C54.9815 15.3637 54.8421 14.8233 54.8421 14.2478C54.8421 13.5459 55.0233 12.9493 55.3857 12.458C55.748 11.9527 56.2637 11.5666 56.9327 11.2999C57.6017 11.0332 58.403 10.8999 59.3368 10.8999H62.0754C62.0754 10.2822 61.9848 9.76986 61.8037 9.36278C61.6225 8.9557 61.3507 8.6539 60.9883 8.45737C60.6399 8.24681 60.1939 8.14153 59.6504 8.14153C59.0232 8.14153 58.4867 8.29594 58.0407 8.60476C57.5947 8.89955 57.3159 9.34172 57.2044 9.93129H55.1139C55.1975 9.18731 55.4484 8.55563 55.8665 8.03625C56.2985 7.50284 56.8491 7.09575 57.518 6.81501C58.187 6.52022 58.8978 6.37283 59.6504 6.37283C60.6399 6.37283 61.4692 6.5483 62.1381 6.89923C62.8071 7.25016 63.3089 7.74849 63.6433 8.39421C63.9918 9.02588 64.166 9.7839 64.166 10.6683V17.2377H62.3472L62.18 15.448C62.0267 15.7287 61.8455 15.9954 61.6364 16.2481C61.4274 16.5008 61.1765 16.7183 60.8838 16.9008C60.6051 17.0833 60.2776 17.2237 59.9013 17.3219C59.5389 17.4342 59.1347 17.4904 58.6887 17.4904ZM59.0859 15.7848C59.5319 15.7848 59.9361 15.6936 60.2985 15.5111C60.6608 15.3286 60.9674 15.083 61.2183 14.7742C61.4831 14.4513 61.6782 14.0934 61.8037 13.7003C61.943 13.2932 62.0197 12.8791 62.0336 12.458V12.3948H59.5459C58.9466 12.3948 58.4588 12.472 58.0825 12.6265C57.7201 12.7668 57.4553 12.9633 57.2881 13.216C57.1208 13.4687 57.0372 13.7635 57.0372 14.1004C57.0372 14.4513 57.1139 14.7531 57.2672 15.0058C57.4344 15.2444 57.6713 15.4339 57.978 15.5743C58.2846 15.7147 58.6539 15.7848 59.0859 15.7848Z" fill="#F4F4F5"/>
<path d="M66.4163 17.2377V6.6255H68.2978L68.4232 8.43632C68.7577 7.80464 69.2316 7.30631 69.8448 6.94134C70.458 6.56234 71.1618 6.37283 71.9562 6.37283C72.7925 6.37283 73.5102 6.54128 74.1095 6.87818C74.7088 7.21507 75.1757 7.72743 75.5102 8.41526C75.8447 9.08905 76.0119 9.93831 76.0119 10.963V17.2377H73.9214V11.1736C73.9214 10.191 73.7053 9.447 73.2733 8.94166C72.8412 8.43632 72.2141 8.18365 71.3918 8.18365C70.8482 8.18365 70.3605 8.317 69.9284 8.58371C69.4964 8.83638 69.1479 9.21539 68.8831 9.72073C68.6323 10.2261 68.5068 10.8437 68.5068 11.5737V17.2377H66.4163Z" fill="#F4F4F5"/>
<path d="M81.7591 17.4904C80.895 17.4904 80.1773 17.343 79.6059 17.0482C79.0345 16.7534 78.6094 16.3604 78.3306 15.8691C78.0519 15.3637 77.9125 14.8233 77.9125 14.2478C77.9125 13.5459 78.0937 12.9493 78.4561 12.458C78.8184 11.9527 79.3341 11.5666 80.0031 11.2999C80.672 11.0332 81.4734 10.8999 82.4072 10.8999H85.1458C85.1458 10.2822 85.0552 9.76986 84.8741 9.36278C84.6929 8.9557 84.4211 8.6539 84.0587 8.45737C83.7103 8.24681 83.2643 8.14153 82.7208 8.14153C82.0936 8.14153 81.557 8.29594 81.1111 8.60476C80.6651 8.89955 80.3863 9.34172 80.2748 9.93129H78.1843C78.2679 9.18731 78.5188 8.55563 78.9369 8.03625C79.3689 7.50284 79.9194 7.09575 80.5884 6.81501C81.2574 6.52022 81.9682 6.37283 82.7208 6.37283C83.7103 6.37283 84.5396 6.5483 85.2085 6.89923C85.8775 7.25016 86.3793 7.74849 86.7137 8.39421C87.0622 9.02588 87.2364 9.7839 87.2364 10.6683V17.2377H85.4176L85.2504 15.448C85.0971 15.7287 84.9159 15.9954 84.7068 16.2481C84.4978 16.5008 84.2469 16.7183 83.9542 16.9008C83.6755 17.0833 83.348 17.2237 82.9717 17.3219C82.6093 17.4342 82.2051 17.4904 81.7591 17.4904ZM82.1563 15.7848C82.6023 15.7848 83.0065 15.6936 83.3689 15.5111C83.7312 15.3286 84.0378 15.083 84.2887 14.7742C84.5535 14.4513 84.7486 14.0934 84.8741 13.7003C85.0134 13.2932 85.0901 12.8791 85.104 12.458V12.3948H82.6163C82.017 12.3948 81.5292 12.472 81.1529 12.6265C80.7905 12.7668 80.5257 12.9633 80.3585 13.216C80.1912 13.4687 80.1076 13.7635 80.1076 14.1004C80.1076 14.4513 80.1842 14.7531 80.3376 15.0058C80.5048 15.2444 80.7417 15.4339 81.0483 15.5743C81.355 15.7147 81.7243 15.7848 82.1563 15.7848Z" fill="#F4F4F5"/>
<path d="M88.4832 17.2377L92.1208 11.9316L88.4832 6.6255H90.741L93.5005 10.7525L96.281 6.6255H98.5179L94.8803 11.9316L98.5179 17.2377H96.281L93.5005 13.0897L90.741 17.2377H88.4832Z" fill="#F4F4F5"/>
<defs>
<clipPath id="clip0_42_352">
<rect width="19.9891" height="19.9891" fill="white"/>
</clipPath>
</defs>
</svg>
